<?xml version="1.0" standalone="no"?>
<!DOCTYPE svg PUBLIC "-//W3C//DTD SVG 20010904//EN"
 "http://www.w3.org/TR/2001/REC-SVG-20010904/DTD/svg10.dtd">
<svg version="1.0" xmlns="http://www.w3.org/2000/svg"
 width="1147.000000pt" height="1148.000000pt" viewBox="0 0 1147.000000 1148.000000"
 preserveAspectRatio="xMidYMid meet">

<g transform="translate(0.000000,1148.000000) scale(0.100000,-0.100000)"
fill="#000000" stroke="none">
<path d="M9987 11450 c-88 -11 -259 -36 -380 -56 -1911 -312 -3681 -1083
-5217 -2272 -602 -467 -1242 -1081 -1742 -1673 -1202 -1424 -2040 -3114 -2442
-4924 -112 -507 -198 -1057 -197 -1275 0 -336 123 -631 361 -871 173 -173 373
-283 625 -342 90 -21 99 -21 1810 -24 l1720 -3 3465 4131 3465 4130 3 1027 c2
873 0 1041 -12 1123 -70 448 -387 827 -818 978 -192 67 -385 82 -641 51z"/>
</g>
</svg>
